<svg xmlns="http://www.w3.org/2000/svg" width="512" height="512" viewBox="0 0 512 512">
<defs>
<radialGradient id="bg" cx="36%" cy="20%" r="82%"><stop offset="0%" stop-color="#3fb9cc"/><stop offset="100%" stop-color="#102b43"/></radialGradient>
<linearGradient id="shine" x1="0" y1="0" x2="1" y2="1"><stop offset="0%" stop-color="rgba(255,255,255,.38)"/><stop offset="100%" stop-color="rgba(255,255,255,0)"/></linearGradient>
<filter id="shadow" x="-30%" y="-30%" width="160%" height="160%"><feDropShadow dx="0" dy="18" stdDeviation="15" flood-color="#000" flood-opacity=".38"/></filter>
<filter id="glow" x="-40%" y="-40%" width="180%" height="180%"><feGaussianBlur stdDeviation="5" result="b"/><feMerge><feMergeNode in="b"/><feMergeNode in="SourceGraphic"/></feMerge></filter>
</defs>
<rect width="512" height="512" rx="58" fill="url(#bg)"/>
<circle cx="410" cy="88" r="68" fill="rgba(255,255,255,.10)"/>
<circle cx="96" cy="420" r="76" fill="rgba(0,0,0,.16)"/>

<g filter="url(#shadow)">
<ellipse cx="256" cy="350" rx="145" ry="44" fill="rgba(0,0,0,.28)"/>
<path d="M172 314 C150 250 190 198 238 218 C242 164 286 132 322 170 C360 210 342 282 312 332 Z" fill="#6bd9e7"/>
<path d="M168 236 C130 198 138 156 174 136 C198 174 198 214 168 236Z" fill="#ff91bd"/>
<path d="M230 214 C218 160 248 116 294 106 C306 160 280 198 230 214Z" fill="#ffd38a"/>
<path d="M330 252 C382 220 416 238 432 282 C382 300 350 290 330 252Z" fill="#ff91bd"/>
<circle cx="256" cy="266" r="54" fill="#f6ffdf" opacity=".85" filter="url(#glow)"/>
<circle cx="232" cy="266" r="10" fill="#07111f"/><circle cx="280" cy="266" r="10" fill="#07111f"/>
<circle cx="228" cy="261" r="3" fill="#fff"/><circle cx="276" cy="261" r="3" fill="#fff"/>
<path d="M236 306 Q256 320 278 306" fill="none" stroke="#17445c" stroke-width="8" stroke-linecap="round"/>
</g><rect x="46" y="410" width="420" height="66" rx="24" fill="rgba(0,0,0,.34)"/>
<text x="256" y="452" fill="#fff" font-size="30" font-family="system-ui,sans-serif" font-weight="900" text-anchor="middle">コーラルルーメ</text>
</svg>