<svg xmlns="http://www.w3.org/2000/svg" width="512" height="512" viewBox="0 0 512 512">
<defs>
<radialGradient id="bg" cx="36%" cy="20%" r="82%"><stop offset="0%" stop-color="#8098ff"/><stop offset="100%" stop-color="#18224a"/></radialGradient>
<linearGradient id="shine" x1="0" y1="0" x2="1" y2="1"><stop offset="0%" stop-color="rgba(255,255,255,.38)"/><stop offset="100%" stop-color="rgba(255,255,255,0)"/></linearGradient>
<filter id="shadow" x="-30%" y="-30%" width="160%" height="160%"><feDropShadow dx="0" dy="18" stdDeviation="15" flood-color="#000" flood-opacity=".38"/></filter>
<filter id="glow" x="-40%" y="-40%" width="180%" height="180%"><feGaussianBlur stdDeviation="5" result="b"/><feMerge><feMergeNode in="b"/><feMergeNode in="SourceGraphic"/></feMerge></filter>
</defs>
<rect width="512" height="512" rx="58" fill="url(#bg)"/>
<circle cx="410" cy="88" r="68" fill="rgba(255,255,255,.10)"/>
<circle cx="96" cy="420" r="76" fill="rgba(0,0,0,.16)"/>

<g filter="url(#shadow)">
<ellipse cx="256" cy="360" rx="150" ry="42" fill="rgba(0,0,0,.25)"/>
<path d="M112 258 C150 172 214 202 240 286 C184 286 142 310 112 258Z" fill="#dfe7ff"/>
<path d="M400 258 C362 172 298 202 272 286 C328 286 370 310 400 258Z" fill="#dfe7ff"/>
<ellipse cx="256" cy="278" rx="76" ry="118" fill="#f8f7ff"/>
<circle cx="256" cy="254" r="54" fill="#fff1c7" filter="url(#glow)"/>
<circle cx="232" cy="258" r="10" fill="#25305f"/><circle cx="280" cy="258" r="10" fill="#25305f"/>
<circle cx="228" cy="253" r="3" fill="#fff"/><circle cx="276" cy="253" r="3" fill="#fff"/>
<path d="M236 312 Q256 330 278 312" fill="none" stroke="#394475" stroke-width="8" stroke-linecap="round"/>
<path d="M256 158 L276 104 L296 158" fill="#ffe7a8"/>
</g><rect x="46" y="410" width="420" height="66" rx="24" fill="rgba(0,0,0,.34)"/>
<text x="256" y="452" fill="#fff" font-size="30" font-family="system-ui,sans-serif" font-weight="900" text-anchor="middle">パールセラフ</text>
</svg>