<svg xmlns="http://www.w3.org/2000/svg" width="512" height="512" viewBox="0 0 512 512">
<defs>
<radialGradient id="bg" cx="36%" cy="20%" r="82%"><stop offset="0%" stop-color="#195f9c"/><stop offset="100%" stop-color="#08192d"/></radialGradient>
<linearGradient id="shine" x1="0" y1="0" x2="1" y2="1"><stop offset="0%" stop-color="rgba(255,255,255,.38)"/><stop offset="100%" stop-color="rgba(255,255,255,0)"/></linearGradient>
<filter id="shadow" x="-30%" y="-30%" width="160%" height="160%"><feDropShadow dx="0" dy="18" stdDeviation="15" flood-color="#000" flood-opacity=".38"/></filter>
<filter id="glow" x="-40%" y="-40%" width="180%" height="180%"><feGaussianBlur stdDeviation="5" result="b"/><feMerge><feMergeNode in="b"/><feMergeNode in="SourceGraphic"/></feMerge></filter>
</defs>
<rect width="512" height="512" rx="58" fill="url(#bg)"/>
<circle cx="410" cy="88" r="68" fill="rgba(255,255,255,.10)"/>
<circle cx="96" cy="420" r="76" fill="rgba(0,0,0,.16)"/>

<g filter="url(#shadow)">
<ellipse cx="256" cy="356" rx="152" ry="44" fill="rgba(0,0,0,.30)"/>
<path d="M122 270 C192 190 306 176 392 252 C334 346 204 362 122 270Z" fill="#3aa0d8"/>
<path d="M380 254 L454 198 L432 286 L454 356 Z" fill="#1c6da6"/>
<path d="M206 202 L260 118 L292 206 Z" fill="#56c7ff"/>
<path d="M212 340 L270 400 L304 328 Z" fill="#2d86c8"/>
<path d="M166 258 C226 222 304 218 358 250" stroke="rgba(255,255,255,.35)" stroke-width="12" fill="none" stroke-linecap="round"/>
<circle cx="182" cy="258" r="15" fill="#061222"/>
<circle cx="176" cy="252" r="5" fill="#fff"/>
<path d="M214 296 Q250 318 290 294" fill="none" stroke="#0d3458" stroke-width="8" stroke-linecap="round"/>
</g><rect x="46" y="410" width="420" height="66" rx="24" fill="rgba(0,0,0,.34)"/>
<text x="256" y="452" fill="#fff" font-size="30" font-family="system-ui,sans-serif" font-weight="900" text-anchor="middle">アビスフィン</text>
</svg>