<svg xmlns="http://www.w3.org/2000/svg" width="512" height="512" viewBox="0 0 512 512">
<defs>
<radialGradient id="bg" cx="36%" cy="20%" r="82%"><stop offset="0%" stop-color="#352170"/><stop offset="100%" stop-color="#070712"/></radialGradient>
<linearGradient id="shine" x1="0" y1="0" x2="1" y2="1"><stop offset="0%" stop-color="rgba(255,255,255,.38)"/><stop offset="100%" stop-color="rgba(255,255,255,0)"/></linearGradient>
<filter id="shadow" x="-30%" y="-30%" width="160%" height="160%"><feDropShadow dx="0" dy="18" stdDeviation="15" flood-color="#000" flood-opacity=".38"/></filter>
<filter id="glow" x="-40%" y="-40%" width="180%" height="180%"><feGaussianBlur stdDeviation="5" result="b"/><feMerge><feMergeNode in="b"/><feMergeNode in="SourceGraphic"/></feMerge></filter>
</defs>
<rect width="512" height="512" rx="58" fill="url(#bg)"/>
<circle cx="410" cy="88" r="68" fill="rgba(255,255,255,.10)"/>
<circle cx="96" cy="420" r="76" fill="rgba(0,0,0,.16)"/>

<g filter="url(#shadow)">
<ellipse cx="256" cy="372" rx="164" ry="44" fill="rgba(0,0,0,.36)"/>
<path d="M138 330 C128 234 190 164 278 168 C368 172 414 250 372 334 C334 396 190 402 138 330Z" fill="#4e3194"/>
<path d="M198 176 L210 88 L262 156 Z" fill="#e34d92"/>
<path d="M298 166 L350 86 L338 190 Z" fill="#35d7ff"/>
<path d="M350 250 C422 220 450 278 420 340 C396 296 370 286 350 250Z" fill="#2b1b61"/>
<circle cx="226" cy="248" r="13" fill="#070712"/><circle cx="304" cy="248" r="13" fill="#070712"/>
<circle cx="222" cy="243" r="4" fill="#fff"/><circle cx="300" cy="243" r="4" fill="#fff"/>
<path d="M246 306 Q286 338 326 302" fill="none" stroke="#0a0715" stroke-width="10" stroke-linecap="round"/>
<circle cx="258" cy="280" r="28" fill="#bd69ff" opacity=".65" filter="url(#glow)"/>
<path d="M170 226 C222 194 302 198 356 246" stroke="#3ee6ff" stroke-width="9" fill="none" opacity=".55"/>
</g><rect x="46" y="410" width="420" height="66" rx="24" fill="rgba(0,0,0,.34)"/>
<text x="256" y="452" fill="#fff" font-size="30" font-family="system-ui,sans-serif" font-weight="900" text-anchor="middle">カオスワーム</text>
</svg>