<svg xmlns="http://www.w3.org/2000/svg" width="512" height="512" viewBox="0 0 512 512">
  <defs><linearGradient id="b" x2="0" y2="1"><stop stop-color="#78d9ff"/><stop offset="1" stop-color="#304b99"/></linearGradient><filter id="g"><feGaussianBlur stdDeviation="9"/></filter></defs>
  <rect x="20" y="20" width="472" height="472" rx="96" fill="url(#b)"/>
  <circle cx="384" cy="112" r="55" fill="#ffe98b" opacity=".72" filter="url(#g)"/>
  <g fill="#fff" opacity=".55"><ellipse cx="118" cy="128" rx="70" ry="24"/><ellipse cx="398" cy="355" rx="64" ry="20"/></g>
  <path d="M126 330 C118 255 160 196 226 204 C260 160 332 181 337 234 C392 247 408 319 366 356 C325 392 169 386 126 330Z" fill="#f9fcff" stroke="#a8e7ff" stroke-width="12"/>
  <ellipse cx="216" cy="286" rx="14" ry="19" fill="#24427d"/><ellipse cx="294" cy="286" rx="14" ry="19" fill="#24427d"/>
  <path d="M226 329 Q256 349 286 329" fill="none" stroke="#5689bb" stroke-width="9" stroke-linecap="round"/>
  <path d="M153 371 Q256 420 359 371" fill="none" stroke="#d4f5ff" stroke-width="18" stroke-linecap="round"/>
</svg>
