<svg xmlns="http://www.w3.org/2000/svg" width="512" height="512" viewBox="0 0 512 512">
<defs>
  <radialGradient id="bg" cx="38%" cy="24%" r="78%">
    <stop offset="0%" stop-color="#394f69"/>
    <stop offset="100%" stop-color="#17213f"/>
  </radialGradient>
  <filter id="shadow" x="-30%" y="-30%" width="160%" height="160%">
    <feDropShadow dx="0" dy="16" stdDeviation="16" flood-color="#000" flood-opacity=".35"/>
  </filter>
  <filter id="glow" x="-40%" y="-40%" width="180%" height="180%">
    <feGaussianBlur stdDeviation="5" result="blur"/>
    <feMerge><feMergeNode in="blur"/><feMergeNode in="SourceGraphic"/></feMerge>
  </filter>
</defs>
<rect width="512" height="512" rx="52" fill="url(#bg)"/>
<circle cx="418" cy="88" r="64" fill="rgba(255,255,255,.12)"/>
<circle cx="92" cy="420" r="72" fill="rgba(0,0,0,.12)"/>

<g filter="url(#shadow)">
 <ellipse cx="256" cy="356" rx="140" ry="42" fill="rgba(0,0,0,.28)"/>
 <rect x="148" y="178" width="216" height="190" rx="42" fill="#718399"/>
 <rect x="180" y="210" width="152" height="88" rx="28" fill="#2e4056"/>
 <circle cx="256" cy="310" r="42" fill="#7edfff" filter="url(#glow)"/>
 <circle cx="220" cy="250" r="15" fill="#e7fbff"/>
 <circle cx="292" cy="250" r="15" fill="#e7fbff"/>
 <path d="M152 236 L92 214 L108 278 Z" fill="#596b7f"/>
 <path d="M360 236 L420 214 L404 278 Z" fill="#596b7f"/>
 <path d="M214 154 L230 104 L256 144 L282 104 L298 154" fill="none" stroke="#90a3b8" stroke-width="14" stroke-linecap="round"/>
</g>
<rect x="48" y="412" width="416" height="62" rx="22" fill="rgba(0,0,0,.32)"/>
<text x="256" y="451" text-anchor="middle" font-size="30" fill="#fff" font-family="system-ui, sans-serif" font-weight="800">ギアビット</text>
</svg>