<svg xmlns="http://www.w3.org/2000/svg" width="512" height="512" viewBox="0 0 512 512">
<defs>
<radialGradient id="bg" cx="36%" cy="20%" r="82%"><stop offset="0%" stop-color="#3c3450"/><stop offset="100%" stop-color="#14131f"/></radialGradient>
<linearGradient id="shine" x1="0" y1="0" x2="1" y2="1"><stop offset="0%" stop-color="rgba(255,255,255,.38)"/><stop offset="100%" stop-color="rgba(255,255,255,0)"/></linearGradient>
<filter id="shadow" x="-30%" y="-30%" width="160%" height="160%"><feDropShadow dx="0" dy="18" stdDeviation="15" flood-color="#000" flood-opacity=".38"/></filter>
<filter id="glow" x="-40%" y="-40%" width="180%" height="180%"><feGaussianBlur stdDeviation="5" result="b"/><feMerge><feMergeNode in="b"/><feMergeNode in="SourceGraphic"/></feMerge></filter>
</defs>
<rect width="512" height="512" rx="58" fill="url(#bg)"/>
<circle cx="410" cy="88" r="68" fill="rgba(255,255,255,.10)"/>
<circle cx="96" cy="420" r="76" fill="rgba(0,0,0,.16)"/>

<g filter="url(#shadow)">
<ellipse cx="256" cy="366" rx="156" ry="42" fill="rgba(0,0,0,.34)"/>
<path d="M172 352 L178 210 L220 158 L292 158 L336 210 L342 352 Z" fill="#5c6178"/>
<path d="M202 206 L232 122 L256 180 L290 122 L310 206" fill="#33364a"/>
<rect x="206" y="226" width="100" height="54" rx="14" fill="#151827"/>
<circle cx="232" cy="252" r="10" fill="#ff5671" filter="url(#glow)"/>
<circle cx="282" cy="252" r="10" fill="#ff5671" filter="url(#glow)"/>
<path d="M128 220 L160 206 L224 380 L194 394 Z" fill="#c7d1e6"/>
<path d="M332 204 L398 146 L372 244 Z" fill="#8b213c"/>
<path d="M214 320 Q256 340 300 320" fill="none" stroke="#111521" stroke-width="10" stroke-linecap="round"/>
</g><rect x="46" y="410" width="420" height="66" rx="24" fill="rgba(0,0,0,.34)"/>
<text x="256" y="452" fill="#fff" font-size="30" font-family="system-ui,sans-serif" font-weight="900" text-anchor="middle">ヘルナイト</text>
</svg>