<svg xmlns="http://www.w3.org/2000/svg" width="512" height="512" viewBox="0 0 512 512">
<defs>
<radialGradient id="bg" cx="36%" cy="20%" r="82%"><stop offset="0%" stop-color="#7c2f67"/><stop offset="100%" stop-color="#20132d"/></radialGradient>
<linearGradient id="shine" x1="0" y1="0" x2="1" y2="1"><stop offset="0%" stop-color="rgba(255,255,255,.38)"/><stop offset="100%" stop-color="rgba(255,255,255,0)"/></linearGradient>
<filter id="shadow" x="-30%" y="-30%" width="160%" height="160%"><feDropShadow dx="0" dy="18" stdDeviation="15" flood-color="#000" flood-opacity=".38"/></filter>
<filter id="glow" x="-40%" y="-40%" width="180%" height="180%"><feGaussianBlur stdDeviation="5" result="b"/><feMerge><feMergeNode in="b"/><feMergeNode in="SourceGraphic"/></feMerge></filter>
</defs>
<rect width="512" height="512" rx="58" fill="url(#bg)"/>
<circle cx="410" cy="88" r="68" fill="rgba(255,255,255,.10)"/>
<circle cx="96" cy="420" r="76" fill="rgba(0,0,0,.16)"/>

<g filter="url(#shadow)">
<ellipse cx="256" cy="356" rx="140" ry="42" fill="rgba(0,0,0,.28)"/>
<path d="M158 310 C144 218 190 158 256 160 C322 158 370 218 354 310 C342 374 302 402 256 402 C210 402 168 374 158 310Z" fill="#8b3b7d"/>
<path d="M196 178 L178 104 L240 154 Z" fill="#f06b92"/>
<path d="M316 178 L334 104 L272 154 Z" fill="#f06b92"/>
<circle cx="222" cy="260" r="13" fill="#0a0a14"/><circle cx="290" cy="260" r="13" fill="#0a0a14"/>
<circle cx="218" cy="255" r="4" fill="#fff"/><circle cx="286" cy="255" r="4" fill="#fff"/>
<path d="M226 320 Q256 342 286 320" fill="none" stroke="#1b0e22" stroke-width="9" stroke-linecap="round"/>
<path d="M228 336 L240 364 L252 336" fill="#fff"/><path d="M260 336 L272 364 L284 336" fill="#fff"/>
<path d="M178 290 C132 272 124 220 158 196" stroke="#5a2455" stroke-width="22" fill="none" stroke-linecap="round"/>
</g><rect x="46" y="410" width="420" height="66" rx="24" fill="rgba(0,0,0,.34)"/>
<text x="256" y="452" fill="#fff" font-size="30" font-family="system-ui,sans-serif" font-weight="900" text-anchor="middle">インプファング</text>
</svg>