<svg xmlns="http://www.w3.org/2000/svg" width="512" height="512" viewBox="0 0 512 512">
<defs>
  <radialGradient id="bg" cx="38%" cy="24%" r="78%">
    <stop offset="0%" stop-color="#31408a"/>
    <stop offset="100%" stop-color="#17213f"/>
  </radialGradient>
  <filter id="shadow" x="-30%" y="-30%" width="160%" height="160%">
    <feDropShadow dx="0" dy="16" stdDeviation="16" flood-color="#000" flood-opacity=".35"/>
  </filter>
  <filter id="glow" x="-40%" y="-40%" width="180%" height="180%">
    <feGaussianBlur stdDeviation="5" result="blur"/>
    <feMerge><feMergeNode in="blur"/><feMergeNode in="SourceGraphic"/></feMerge>
  </filter>
</defs>
<rect width="512" height="512" rx="52" fill="url(#bg)"/>
<circle cx="418" cy="88" r="64" fill="rgba(255,255,255,.12)"/>
<circle cx="92" cy="420" r="72" fill="rgba(0,0,0,.12)"/>

<g filter="url(#shadow)">
 <ellipse cx="256" cy="360" rx="150" ry="44" fill="rgba(0,0,0,.28)"/>
 <path d="M154 300 C170 202 228 140 312 152 C380 162 404 232 370 292 C350 348 306 394 246 394 C190 394 144 354 154 300Z" fill="#7b5cff"/>
 <path d="M202 170 L210 98 L252 154 Z" fill="#fff08a"/>
 <path d="M296 154 L342 100 L330 176 Z" fill="#fff08a"/>
 <path d="M332 246 C396 226 420 270 402 322 C378 284 348 280 332 246Z" fill="#9b332c"/>
 
<circle cx="226" cy="252" r="14" fill="#101827"/>
<circle cx="302" cy="252" r="14" fill="#101827"/>
<circle cx="222" cy="247" r="4" fill="#fff"/>
<circle cx="298" cy="247" r="4" fill="#fff"/>

 <path d="M248 306 Q280 330 316 300" fill="none" stroke="#35110f" stroke-width="10" stroke-linecap="round"/>
 <path d="M205 182 C235 158 282 158 314 188" stroke="#ffd15c" stroke-width="10" fill="none" opacity=".85"/>
 <circle cx="184" cy="302" r="17" fill="#ff9b41" opacity=".8"/>
</g>
<rect x="48" y="412" width="416" height="62" rx="22" fill="rgba(0,0,0,.32)"/>
<text x="256" y="451" text-anchor="middle" font-size="30" fill="#fff" font-family="system-ui, sans-serif" font-weight="800">プリズムドラゴン</text>
</svg>