<svg xmlns="http://www.w3.org/2000/svg" width="512" height="512" viewBox="0 0 512 512">
  <defs><linearGradient id="b" x2="0" y2="1"><stop stop-color="#233f75"/><stop offset="1" stop-color="#7ed8f0"/></linearGradient><linearGradient id="m"><stop stop-color="#f5fbff"/><stop offset="1" stop-color="#6b91a9"/></linearGradient></defs>
  <rect x="20" y="20" width="472" height="472" rx="96" fill="url(#b)"/>
  <g fill="url(#m)" stroke="#c8f5ff" stroke-width="10" stroke-linejoin="round">
    <path d="M178 190 L256 126 L334 190 L319 292 L193 292Z"/>
    <path d="M145 290 L203 263 L309 263 L367 290 L347 423 H165Z"/>
    <path d="M145 306 L82 344 L112 402 L175 369Z"/>
    <path d="M367 306 L430 344 L400 402 L337 369Z"/>
  </g>
  <path d="M202 211 H310 L291 252 H221Z" fill="#13294d"/>
  <circle cx="256" cy="335" r="45" fill="#254c7b" stroke="#7ff3ff" stroke-width="12"/>
  <path d="M256 306 V364 M227 335 H285" stroke="#fff6ac" stroke-width="11" stroke-linecap="round"/>
  <path d="M199 421 L179 456 M313 421 L333 456" stroke="#607d91" stroke-width="20" stroke-linecap="round"/>
</svg>
