<svg xmlns="http://www.w3.org/2000/svg" width="512" height="512" viewBox="0 0 512 512">
  <defs><linearGradient id="b" x2="1" y2="1"><stop stop-color="#35217a"/><stop offset=".55" stop-color="#287fc0"/><stop offset="1" stop-color="#8ae9ff"/></linearGradient><filter id="g"><feGaussianBlur stdDeviation="5"/></filter></defs>
  <rect x="20" y="20" width="472" height="472" rx="96" fill="url(#b)"/>
  <g fill="none" stroke="#d4fbff" stroke-width="12" stroke-linecap="round" opacity=".72"><path d="M77 169 Q145 115 199 162"/><path d="M317 150 Q382 105 440 157"/></g>
  <path d="M167 280 Q165 161 256 140 Q347 161 345 280 Q344 337 300 359 Q322 411 262 444 Q277 397 223 373 Q167 346 167 280Z" fill="#6ee2f1" stroke="#e5ffff" stroke-width="12"/>
  <path d="M209 257 Q256 221 303 257 L288 321 Q256 345 224 321Z" fill="#24549c"/>
  <circle cx="228" cy="274" r="11" fill="#fff8a8"/><circle cx="284" cy="274" r="11" fill="#fff8a8"/>
  <path d="M261 71 L213 190 H258 L225 280 L326 151 H276 L315 71Z" fill="#ffe44f" stroke="#fff6b0" stroke-width="7" stroke-linejoin="round" filter="url(#g)"/>
</svg>
