<svg xmlns="http://www.w3.org/2000/svg" width="512" height="512" viewBox="0 0 512 512">
  <defs><radialGradient id="b"><stop stop-color="#fff6a8"/><stop offset="1" stop-color="#e88732"/></radialGradient></defs>
  <rect x="20" y="20" width="472" height="472" rx="96" fill="url(#b)"/>
  <circle cx="256" cy="250" r="154" fill="none" stroke="#fff5ae" stroke-width="14" stroke-dasharray="18 14"/>
  <g fill="#fff6d4" stroke="#d99035" stroke-width="11">
    <path d="M190 241 Q133 83 205 76 Q250 142 240 240Z"/>
    <path d="M272 240 Q280 120 345 88 Q379 154 323 258Z"/>
    <path d="M155 308 Q165 218 256 212 Q347 218 357 308 L330 393 Q256 430 182 393Z"/>
  </g>
  <ellipse cx="221" cy="298" rx="13" ry="19" fill="#623c38"/><ellipse cx="294" cy="298" rx="13" ry="19" fill="#623c38"/>
  <path d="M245 332 L256 342 L267 332" fill="#e67870" stroke="#623c38" stroke-width="5" stroke-linejoin="round"/>
  <path d="M182 384 Q256 350 330 384" fill="none" stroke="#ffba42" stroke-width="16" stroke-linecap="round"/>
</svg>
