<svg xmlns="http://www.w3.org/2000/svg" width="512" height="512" viewBox="0 0 512 512">
<defs>
  <radialGradient id="bg" cx="38%" cy="24%" r="78%">
    <stop offset="0%" stop-color="#5a8b56"/>
    <stop offset="100%" stop-color="#17213f"/>
  </radialGradient>
  <filter id="shadow" x="-30%" y="-30%" width="160%" height="160%">
    <feDropShadow dx="0" dy="16" stdDeviation="16" flood-color="#000" flood-opacity=".35"/>
  </filter>
  <filter id="glow" x="-40%" y="-40%" width="180%" height="180%">
    <feGaussianBlur stdDeviation="5" result="blur"/>
    <feMerge><feMergeNode in="blur"/><feMergeNode in="SourceGraphic"/></feMerge>
  </filter>
</defs>
<rect width="512" height="512" rx="52" fill="url(#bg)"/>
<circle cx="418" cy="88" r="64" fill="rgba(255,255,255,.12)"/>
<circle cx="92" cy="420" r="72" fill="rgba(0,0,0,.12)"/>

<g filter="url(#shadow)">
 <ellipse cx="256" cy="354" rx="145" ry="44" fill="rgba(0,0,0,.27)"/>
 <path d="M132 285 L174 218 L188 152 L238 205 L278 146 L308 214 L366 180 L354 250 L408 286 L344 328 L310 392 L256 366 L202 394 L168 328 Z" fill="#8c7b45"/>
 <ellipse cx="256" cy="300" rx="112" ry="88" fill="#c79f55"/>
 
<circle cx="222" cy="286" r="13" fill="#101827"/>
<circle cx="290" cy="286" r="13" fill="#101827"/>
<circle cx="218" cy="281" r="4" fill="#fff"/>
<circle cx="286" cy="281" r="4" fill="#fff"/>

 <path d="M226 336 Q256 354 286 336" fill="none" stroke="#2c2011" stroke-width="10" stroke-linecap="round"/>
 <circle cx="168" cy="280" r="12" fill="#e6e37a"/>
 <circle cx="344" cy="280" r="12" fill="#e6e37a"/>
</g>
<rect x="48" y="412" width="416" height="62" rx="22" fill="rgba(0,0,0,.32)"/>
<text x="256" y="451" text-anchor="middle" font-size="30" fill="#fff" font-family="system-ui, sans-serif" font-weight="800">トゲホッグ</text>
</svg>