<svg xmlns="http://www.w3.org/2000/svg" width="512" height="512" viewBox="0 0 512 512">
  <defs><radialGradient id="b"><stop stop-color="#fff8a3"/><stop offset=".42" stop-color="#eb9f38"/><stop offset="1" stop-color="#492f82"/></radialGradient><linearGradient id="d"><stop stop-color="#fffce0"/><stop offset="1" stop-color="#d69b3e"/></linearGradient></defs>
  <rect x="20" y="20" width="472" height="472" rx="96" fill="url(#b)"/>
  <circle cx="256" cy="251" r="185" fill="none" stroke="#fff2a1" stroke-width="12" stroke-dasharray="20 12"/>
  <g fill="url(#d)" stroke="#fff8c4" stroke-width="11" stroke-linejoin="round">
    <path d="M223 252 Q112 108 55 202 Q109 314 211 342Z"/>
    <path d="M289 252 Q400 108 457 202 Q403 314 301 342Z"/>
    <path d="M136 382 Q153 242 256 189 Q359 242 376 382 Q329 449 256 461 Q183 449 136 382Z"/>
  </g>
  <path d="M190 242 L217 123 L256 177 L296 103 L322 245 L256 213Z" fill="#fff06a" stroke="#fffbc5" stroke-width="10"/>
  <path d="M196 287 Q256 240 316 287 L288 346 H224Z" fill="#824e8d"/>
  <circle cx="222" cy="286" r="13" fill="#fffbd1"/><circle cx="290" cy="286" r="13" fill="#fffbd1"/>
  <path d="M210 375 Q256 409 302 375" fill="none" stroke="#ffe566" stroke-width="15" stroke-linecap="round"/>
  <path d="M256 43 V92 M67 256 H116 M396 256 H445" stroke="#fff9b9" stroke-width="13" stroke-linecap="round"/>
</svg>
