<svg xmlns="http://www.w3.org/2000/svg" width="512" height="512" viewBox="0 0 512 512">
<defs>
<radialGradient id="bg" cx="36%" cy="20%" r="82%"><stop offset="0%" stop-color="#7e2037"/><stop offset="100%" stop-color="#190811"/></radialGradient>
<linearGradient id="shine" x1="0" y1="0" x2="1" y2="1"><stop offset="0%" stop-color="rgba(255,255,255,.38)"/><stop offset="100%" stop-color="rgba(255,255,255,0)"/></linearGradient>
<filter id="shadow" x="-30%" y="-30%" width="160%" height="160%"><feDropShadow dx="0" dy="18" stdDeviation="15" flood-color="#000" flood-opacity=".38"/></filter>
<filter id="glow" x="-40%" y="-40%" width="180%" height="180%"><feGaussianBlur stdDeviation="5" result="b"/><feMerge><feMergeNode in="b"/><feMergeNode in="SourceGraphic"/></feMerge></filter>
</defs>
<rect width="512" height="512" rx="58" fill="url(#bg)"/>
<circle cx="410" cy="88" r="68" fill="rgba(255,255,255,.10)"/>
<circle cx="96" cy="420" r="76" fill="rgba(0,0,0,.16)"/>

<g filter="url(#shadow)">
<ellipse cx="256" cy="372" rx="170" ry="46" fill="rgba(0,0,0,.38)"/>
<path d="M146 346 C138 244 184 160 256 150 C328 160 374 244 366 346 C336 398 176 398 146 346Z" fill="#8f2d42"/>
<path d="M190 170 L156 82 L236 138 Z" fill="#ffb35a"/>
<path d="M322 170 L356 82 L276 138 Z" fill="#ffb35a"/>
<path d="M186 214 C228 184 284 184 326 214" stroke="#ffcc6b" stroke-width="12" fill="none"/>
<circle cx="224" cy="252" r="14" fill="#11030a"/><circle cx="288" cy="252" r="14" fill="#11030a"/>
<circle cx="220" cy="247" r="4" fill="#fff"/><circle cx="284" cy="247" r="4" fill="#fff"/>
<path d="M226 316 Q256 348 290 316" fill="none" stroke="#220710" stroke-width="11" stroke-linecap="round"/>
<path d="M226 336 L240 368 L254 336" fill="#fff"/><path d="M264 336 L278 368 L292 336" fill="#fff"/>
<circle cx="256" cy="288" r="36" fill="#ff4d6d" opacity=".45" filter="url(#glow)"/>
<path d="M146 250 C86 216 86 162 132 134" stroke="#5c1a30" stroke-width="26" fill="none" stroke-linecap="round"/>
<path d="M366 250 C426 216 426 162 380 134" stroke="#5c1a30" stroke-width="26" fill="none" stroke-linecap="round"/>
</g><rect x="46" y="410" width="420" height="66" rx="24" fill="rgba(0,0,0,.34)"/>
<text x="256" y="452" fill="#fff" font-size="30" font-family="system-ui,sans-serif" font-weight="900" text-anchor="middle">デモンロード</text>
</svg>