<svg xmlns="http://www.w3.org/2000/svg" width="512" height="512" viewBox="0 0 512 512">
<defs>
  <radialGradient id="bg" cx="38%" cy="24%" r="78%">
    <stop offset="0%" stop-color="#3b285f"/>
    <stop offset="100%" stop-color="#17213f"/>
  </radialGradient>
  <filter id="shadow" x="-30%" y="-30%" width="160%" height="160%">
    <feDropShadow dx="0" dy="16" stdDeviation="16" flood-color="#000" flood-opacity=".35"/>
  </filter>
  <filter id="glow" x="-40%" y="-40%" width="180%" height="180%">
    <feGaussianBlur stdDeviation="5" result="blur"/>
    <feMerge><feMergeNode in="blur"/><feMergeNode in="SourceGraphic"/></feMerge>
  </filter>
</defs>
<rect width="512" height="512" rx="52" fill="url(#bg)"/>
<circle cx="418" cy="88" r="64" fill="rgba(255,255,255,.12)"/>
<circle cx="92" cy="420" r="72" fill="rgba(0,0,0,.12)"/>

<g filter="url(#shadow)">
 <ellipse cx="256" cy="356" rx="140" ry="42" fill="rgba(0,0,0,.27)"/>
 <path d="M114 230 C168 146 220 178 246 270 C188 276 146 294 114 230Z" fill="#64459e"/>
 <path d="M398 230 C344 146 292 178 266 270 C324 276 366 294 398 230Z" fill="#64459e"/>
 <ellipse cx="256" cy="276" rx="56" ry="116" fill="#2b223f"/>
 
<circle cx="235" cy="245" r="11" fill="#f4eaff"/>
<circle cx="277" cy="245" r="11" fill="#f4eaff"/>
<circle cx="231" cy="240" r="3" fill="#fff"/>
<circle cx="273" cy="240" r="3" fill="#fff"/>

 <path d="M220 170 Q256 120 292 170" fill="none" stroke="#c989ff" stroke-width="8"/>
 <circle cx="156" cy="224" r="22" fill="#c989ff" opacity=".45"/>
 <circle cx="356" cy="224" r="22" fill="#c989ff" opacity=".45"/>
</g>
<rect x="48" y="412" width="416" height="62" rx="22" fill="rgba(0,0,0,.32)"/>
<text x="256" y="451" text-anchor="middle" font-size="30" fill="#fff" font-family="system-ui, sans-serif" font-weight="800">グルーモス</text>
</svg>