<svg xmlns="http://www.w3.org/2000/svg" width="512" height="512" viewBox="0 0 512 512">
<defs>
  <radialGradient id="bg" cx="38%" cy="24%" r="78%">
    <stop offset="0%" stop-color="#3f284d"/>
    <stop offset="100%" stop-color="#17213f"/>
  </radialGradient>
  <filter id="shadow" x="-30%" y="-30%" width="160%" height="160%">
    <feDropShadow dx="0" dy="16" stdDeviation="16" flood-color="#000" flood-opacity=".35"/>
  </filter>
  <filter id="glow" x="-40%" y="-40%" width="180%" height="180%">
    <feGaussianBlur stdDeviation="5" result="blur"/>
    <feMerge><feMergeNode in="blur"/><feMergeNode in="SourceGraphic"/></feMerge>
  </filter>
</defs>
<rect width="512" height="512" rx="52" fill="url(#bg)"/>
<circle cx="418" cy="88" r="64" fill="rgba(255,255,255,.12)"/>
<circle cx="92" cy="420" r="72" fill="rgba(0,0,0,.12)"/>

<g filter="url(#shadow)">
 <ellipse cx="256" cy="374" rx="158" ry="42" fill="rgba(0,0,0,.28)"/>
 <path d="M158 332 C152 240 200 198 238 242 C228 184 260 130 310 168 C356 202 344 284 324 334 C290 390 206 392 158 332Z" fill="#6f3d83"/>
 <path d="M172 250 C132 202 152 154 204 154 C236 160 238 210 216 244" fill="#76458c"/>
 <path d="M248 198 C238 136 282 98 326 132 C364 162 332 222 300 240" fill="#7e4b94"/>
 <path d="M322 244 C360 184 418 190 430 244 C438 284 382 306 344 282" fill="#76458c"/>
 <circle cx="186" cy="186" r="10" fill="#d9ff6a"/><circle cx="306" cy="158" r="10" fill="#d9ff6a"/><circle cx="402" cy="244" r="10" fill="#d9ff6a"/>
 <path d="M210 328 Q256 368 314 322" fill="none" stroke="#1f1026" stroke-width="12" stroke-linecap="round"/>
 <circle cx="256" cy="290" r="32" fill="#a8ff5f" opacity=".7" filter="url(#glow)"/>
</g>
<rect x="48" y="412" width="416" height="62" rx="22" fill="rgba(0,0,0,.32)"/>
<text x="256" y="451" text-anchor="middle" font-size="30" fill="#fff" font-family="system-ui, sans-serif" font-weight="800">ヴェノムハイドラ</text>
</svg>