<svg xmlns="http://www.w3.org/2000/svg" width="512" height="512" viewBox="0 0 512 512">
<defs>
<radialGradient id="bg" cx="35%" cy="18%" r="78%">
  <stop offset="0%" stop-color="#9cc7ff"/>
  <stop offset="60%" stop-color="#26334a"/>
  <stop offset="100%" stop-color="#070914"/>
</radialGradient>
<filter id="shadow" x="-35%" y="-35%" width="170%" height="170%">
  <feDropShadow dx="0" dy="18" stdDeviation="14" flood-color="#000" flood-opacity=".35"/>
</filter>
<filter id="glow" x="-45%" y="-45%" width="190%" height="190%">
  <feGaussianBlur stdDeviation="6" result="b"/>
  <feMerge><feMergeNode in="b"/><feMergeNode in="SourceGraphic"/></feMerge>
</filter>
</defs>
<rect x="20" y="20" width="472" height="472" rx="96" fill="url(#bg)" opacity=".96"/>
<circle cx="412" cy="94" r="62" fill="rgba(255,255,255,.13)"/>
<circle cx="90" cy="418" r="76" fill="rgba(0,0,0,.15)"/>
<circle cx="80" cy="70" r="3" fill="rgba(255,255,255,.55)"/><circle cx="158" cy="88" r="4" fill="rgba(255,255,255,.55)"/><circle cx="236" cy="70" r="5" fill="rgba(255,255,255,.55)"/><circle cx="314" cy="88" r="3" fill="rgba(255,255,255,.55)"/><circle cx="392" cy="70" r="4" fill="rgba(255,255,255,.55)"/>
<g filter="url(#shadow)">

<g fill="#9cc7ff" stroke="#ffffff" stroke-width="9" stroke-linejoin="round">
<path d="M256 76 L292 120 L348 104 L364 160 L420 180 L398 234 L436 278 L392 314 L404 372 L346 386 L318 438 L256 416 L194 438 L166 386 L108 372 L120 314 L76 278 L114 234 L92 180 L148 160 L164 104 L220 120 Z"/>
</g>
<circle cx="256" cy="256" r="102" fill="#26334a" stroke="#ffffff" stroke-width="12"/>
<circle cx="256" cy="256" r="48" fill="#9cc7ff" filter="url(#glow)"/>

</g>
</svg>