<svg xmlns="http://www.w3.org/2000/svg" width="512" height="512" viewBox="0 0 512 512">
<defs>
<radialGradient id="bg" cx="35%" cy="18%" r="78%">
  <stop offset="0%" stop-color="#ffe66d"/>
  <stop offset="60%" stop-color="#473c11"/>
  <stop offset="100%" stop-color="#070914"/>
</radialGradient>
<filter id="shadow" x="-35%" y="-35%" width="170%" height="170%">
  <feDropShadow dx="0" dy="18" stdDeviation="14" flood-color="#000" flood-opacity=".35"/>
</filter>
<filter id="glow" x="-45%" y="-45%" width="190%" height="190%">
  <feGaussianBlur stdDeviation="6" result="b"/>
  <feMerge><feMergeNode in="b"/><feMergeNode in="SourceGraphic"/></feMerge>
</filter>
</defs>
<rect x="20" y="20" width="472" height="472" rx="96" fill="url(#bg)" opacity=".96"/>
<circle cx="412" cy="94" r="62" fill="rgba(255,255,255,.13)"/>
<circle cx="90" cy="418" r="76" fill="rgba(0,0,0,.15)"/>
<circle cx="80" cy="70" r="3" fill="rgba(255,255,255,.55)"/><circle cx="158" cy="88" r="4" fill="rgba(255,255,255,.55)"/><circle cx="236" cy="70" r="5" fill="rgba(255,255,255,.55)"/><circle cx="314" cy="88" r="3" fill="rgba(255,255,255,.55)"/><circle cx="392" cy="70" r="4" fill="rgba(255,255,255,.55)"/>
<g filter="url(#shadow)">

<circle cx="256" cy="256" r="134" fill="#473c11" stroke="#d8fbff" stroke-width="14"/>
<circle cx="256" cy="256" r="82" fill="#ffe66d" filter="url(#glow)"/>
<circle cx="256" cy="256" r="38" fill="#d8fbff"/>
<g stroke="#d8fbff" stroke-width="16" stroke-linecap="round">
<path d="M256 74 V124"/><path d="M256 388 V438"/><path d="M74 256 H124"/><path d="M388 256 H438"/>
<path d="M128 128 L164 164"/><path d="M348 348 L384 384"/><path d="M384 128 L348 164"/><path d="M164 348 L128 384"/>
</g>

</g>
</svg>