<svg xmlns="http://www.w3.org/2000/svg" width="512" height="512" viewBox="0 0 512 512">
<defs>
<radialGradient id="bg" cx="35%" cy="18%" r="78%">
  <stop offset="0%" stop-color="#ffd36a"/>
  <stop offset="60%" stop-color="#4a310c"/>
  <stop offset="100%" stop-color="#070914"/>
</radialGradient>
<filter id="shadow" x="-35%" y="-35%" width="170%" height="170%">
  <feDropShadow dx="0" dy="18" stdDeviation="14" flood-color="#000" flood-opacity=".35"/>
</filter>
<filter id="glow" x="-45%" y="-45%" width="190%" height="190%">
  <feGaussianBlur stdDeviation="6" result="b"/>
  <feMerge><feMergeNode in="b"/><feMergeNode in="SourceGraphic"/></feMerge>
</filter>
</defs>
<rect x="20" y="20" width="472" height="472" rx="96" fill="url(#bg)" opacity=".96"/>
<circle cx="412" cy="94" r="62" fill="rgba(255,255,255,.13)"/>
<circle cx="90" cy="418" r="76" fill="rgba(0,0,0,.15)"/>
<circle cx="80" cy="70" r="3" fill="rgba(255,255,255,.55)"/><circle cx="158" cy="88" r="4" fill="rgba(255,255,255,.55)"/><circle cx="236" cy="70" r="5" fill="rgba(255,255,255,.55)"/><circle cx="314" cy="88" r="3" fill="rgba(255,255,255,.55)"/><circle cx="392" cy="70" r="4" fill="rgba(255,255,255,.55)"/>
<g filter="url(#shadow)">

<path d="M180 118 H332 V220 C332 292 300 330 256 330 C212 330 180 292 180 220 Z" fill="#ffd36a" stroke="#ffffff" stroke-width="13"/>
<path d="M180 150 H124 C124 218 142 262 190 268 M332 150 H388 C388 218 370 262 322 268" fill="none" stroke="#ffffff" stroke-width="22" stroke-linecap="round"/>
<rect x="228" y="324" width="56" height="70" rx="14" fill="#ffffff"/>
<rect x="176" y="390" width="160" height="44" rx="18" fill="#ffd36a" stroke="#ffffff" stroke-width="10"/>
<circle cx="256" cy="216" r="42" fill="#fff" opacity=".38"/>

</g>
</svg>