
<svg xmlns="http://www.w3.org/2000/svg" width="1280" height="720" viewBox="0 0 1280 720">
<defs>
  <linearGradient id="sky" x1="0" y1="0" x2="1" y2="1">
    <stop offset="0%" stop-color="#ff8db1"/>
    <stop offset="55%" stop-color="#8030b5"/>
    <stop offset="100%" stop-color="#100613"/>
  </linearGradient>
  <radialGradient id="glow" cx="35%" cy="18%" r="55%">
    <stop offset="0%" stop-color="rgba(255,255,255,.42)"/>
    <stop offset="100%" stop-color="rgba(255,255,255,0)"/>
  </radialGradient>
  <filter id="blur8"><feGaussianBlur stdDeviation="8"/></filter>
  <filter id="blur16"><feGaussianBlur stdDeviation="16"/></filter>
</defs>
<rect width="1280" height="720" fill="url(#sky)"/>
<rect width="1280" height="720" fill="url(#glow)"/>
<circle cx="1060" cy="120" r="110" fill="rgba(255,255,255,.12)" filter="url(#blur16)"/>
<circle cx="220" cy="600" r="180" fill="rgba(0,0,0,.14)" filter="url(#blur16)"/>

<path d="M0 470 C168 448 336 504 550 470 C764 437 974 518 1280 438 L1280 720 L0 720 Z" fill="rgba(45,18,48,.62)"/>
<path d="M0 556 C176 526 365 592 570 548 C786 506 996 592 1280 524 L1280 720 L0 720 Z" fill="rgba(17,8,27,.90)"/>
<ellipse cx="640" cy="318" rx="175" ry="116" fill="rgba(255,54,134,.18)" filter="url(#blur8)"/>
<ellipse cx="640" cy="318" rx="116" ry="175" fill="rgba(112,45,176,.55)" stroke="rgba(255,169,214,.40)" stroke-width="6"/>
<ellipse cx="640" cy="318" rx="74" ry="122" fill="rgba(12,5,20,.72)"/>
<g fill="rgba(28,9,31,.92)"><polygon points="480,500 560,250 640,500"/><polygon points="640,500 720,242 800,500"/></g>
<g stroke="rgba(255,110,184,.75)" stroke-width="5"><path d="M508 245 L480 170"/><path d="M768 245 L800 162"/></g>

<g opacity=".16" fill="#fff"><circle cx="180" cy="130" r="4"/><circle cx="240" cy="90" r="3"/><circle cx="1060" cy="170" r="4"/><circle cx="1130" cy="120" r="2"/></g>
<text x="1120" y="615" font-size="140" text-anchor="middle" opacity=".14">🕳️</text>
</svg>