
<svg xmlns="http://www.w3.org/2000/svg" width="1280" height="720" viewBox="0 0 1280 720">
<defs>
  <linearGradient id="sky" x1="0" y1="0" x2="1" y2="1">
    <stop offset="0%" stop-color="#b0f06b"/>
    <stop offset="55%" stop-color="#399a4c"/>
    <stop offset="100%" stop-color="#24122f"/>
  </linearGradient>
  <radialGradient id="glow" cx="35%" cy="18%" r="55%">
    <stop offset="0%" stop-color="rgba(255,255,255,.42)"/>
    <stop offset="100%" stop-color="rgba(255,255,255,0)"/>
  </radialGradient>
  <filter id="blur8"><feGaussianBlur stdDeviation="8"/></filter>
  <filter id="blur16"><feGaussianBlur stdDeviation="16"/></filter>
</defs>
<rect width="1280" height="720" fill="url(#sky)"/>
<rect width="1280" height="720" fill="url(#glow)"/>
<circle cx="1060" cy="120" r="110" fill="rgba(255,255,255,.12)" filter="url(#blur16)"/>
<circle cx="220" cy="600" r="180" fill="rgba(0,0,0,.14)" filter="url(#blur16)"/>

<path d="M0 470 C170 452 330 506 515 472 C720 435 930 520 1280 432 L1280 720 L0 720 Z" fill="rgba(33,71,35,.56)"/>
<path d="M0 555 C170 524 340 595 560 548 C755 510 952 598 1280 518 L1280 720 L0 720 Z" fill="rgba(25,19,40,.88)"/>
<g fill="rgba(161,255,130,.20)" filter="url(#blur8)"><ellipse cx="270" cy="470" rx="92" ry="34"/><ellipse cx="665" cy="502" rx="136" ry="42"/><ellipse cx="1010" cy="462" rx="105" ry="32"/></g>
<g fill="rgba(77,45,92,.95)"><rect x="845" y="360" width="28" height="130" rx="12"/><circle cx="858" cy="338" r="42"/><circle cx="822" cy="364" r="30"/></g>
<g stroke="rgba(188,255,90,.75)" stroke-width="5" stroke-linecap="round"><path d="M200 470 l25 -22"/><path d="M615 498 l28 -24"/><path d="M950 456 l24 -18"/></g>

<g opacity=".16" fill="#fff"><circle cx="180" cy="130" r="4"/><circle cx="240" cy="90" r="3"/><circle cx="1060" cy="170" r="4"/><circle cx="1130" cy="120" r="2"/></g>
<text x="1120" y="615" font-size="140" text-anchor="middle" opacity=".14">☣️</text>
</svg>