
<svg xmlns="http://www.w3.org/2000/svg" width="1280" height="720" viewBox="0 0 1280 720">
<defs>
  <linearGradient id="sky" x1="0" y1="0" x2="1" y2="1">
    <stop offset="0%" stop-color="#ebfaff"/>
    <stop offset="55%" stop-color="#9dd5ff"/>
    <stop offset="100%" stop-color="#13284a"/>
  </linearGradient>
  <radialGradient id="glow" cx="35%" cy="18%" r="55%">
    <stop offset="0%" stop-color="rgba(255,255,255,.42)"/>
    <stop offset="100%" stop-color="rgba(255,255,255,0)"/>
  </radialGradient>
  <filter id="blur8"><feGaussianBlur stdDeviation="8"/></filter>
  <filter id="blur16"><feGaussianBlur stdDeviation="16"/></filter>
</defs>
<rect width="1280" height="720" fill="url(#sky)"/>
<rect width="1280" height="720" fill="url(#glow)"/>
<circle cx="1060" cy="120" r="110" fill="rgba(255,255,255,.12)" filter="url(#blur16)"/>
<circle cx="220" cy="600" r="180" fill="rgba(0,0,0,.14)" filter="url(#blur16)"/>

<rect y="470" width="1280" height="250" fill="rgba(214,240,255,.40)"/>
<path d="M0 500 C180 480 330 535 530 510 C705 488 960 548 1280 495 L1280 720 L0 720 Z" fill="rgba(198,232,255,.62)"/>
<path d="M0 560 C180 542 340 592 540 570 C742 548 952 612 1280 560 L1280 720 L0 720 Z" fill="rgba(130,178,223,.42)"/>
<polygon points="260,365 300,435 220,435" fill="rgba(255,255,255,.76)"/><polygon points="875,312 930,432 820,432" fill="rgba(255,255,255,.78)"/><polygon points="1025,345 1070,420 980,420" fill="rgba(255,255,255,.68)"/>
<g stroke="rgba(255,255,255,.6)" stroke-width="4"><path d="M116 118 L144 146"/><path d="M144 118 L116 146"/><path d="M130 104 L130 160"/><path d="M102 132 L158 132"/></g>

<g opacity=".16" fill="#fff"><circle cx="180" cy="130" r="4"/><circle cx="240" cy="90" r="3"/><circle cx="1060" cy="170" r="4"/><circle cx="1130" cy="120" r="2"/></g>
<text x="1120" y="615" font-size="140" text-anchor="middle" opacity=".14">❄️</text>
</svg>