<svg xmlns="http://www.w3.org/2000/svg" width="512" height="512" viewBox="0 0 512 512">
  <defs><linearGradient id="b" x2="1" y2="1"><stop stop-color="#27356f"/><stop offset="1" stop-color="#9ce4e2"/></linearGradient><linearGradient id="s"><stop stop-color="#e9f0da"/><stop offset="1" stop-color="#738e95"/></linearGradient></defs>
  <rect x="20" y="20" width="472" height="472" rx="96" fill="url(#b)"/>
  <g fill="url(#s)" stroke="#d7ffff" stroke-width="9" stroke-linejoin="round">
    <path d="M183 160 L256 112 L329 160 L316 250 H196Z"/>
    <path d="M146 252 L198 223 H314 L366 252 L345 419 H167Z"/>
    <path d="M151 275 L75 329 L105 410 L174 372Z"/>
    <path d="M361 275 L437 329 L407 410 L338 372Z"/>
  </g>
  <path d="M211 184 H301 L286 224 H226Z" fill="#273a55"/>
  <path d="M256 270 L305 331 L256 392 L207 331Z" fill="#52e8ee" stroke="#e8ffff" stroke-width="12"/>
  <path d="M256 294 L278 331 L256 369 L234 331Z" fill="#fff69b"/>
  <path d="M197 420 L178 461 M315 420 L334 461" stroke="#718a90" stroke-width="24" stroke-linecap="round"/>
</svg>
