<svg xmlns="http://www.w3.org/2000/svg" width="512" height="512" viewBox="0 0 512 512">
  <defs><linearGradient id="b" x2="1" y2="1"><stop stop-color="#164f87"/><stop offset="1" stop-color="#7ee7d8"/></linearGradient></defs>
  <rect x="20" y="20" width="472" height="472" rx="96" fill="url(#b)"/>
  <g fill="#dffdf6" stroke="#4aa6b7" stroke-width="10" stroke-linejoin="round">
    <path d="M240 243 Q124 125 68 199 Q126 289 226 322 L256 276Z"/>
    <path d="M272 243 Q388 125 444 199 Q386 289 286 322 L256 276Z"/>
    <path d="M170 367 Q182 239 256 190 Q330 239 342 367 L300 416 H212Z"/>
  </g>
  <path d="M207 234 L256 105 L305 234 L256 207Z" fill="#ffe475" stroke="#fff4b6" stroke-width="10"/>
  <path d="M220 268 Q256 240 292 268 L270 301 H242Z" fill="#f5be45"/>
  <circle cx="229" cy="256" r="10" fill="#163b66"/><circle cx="283" cy="256" r="10" fill="#163b66"/>
  <path d="M142 332 Q99 347 72 382 M370 332 Q413 347 440 382" fill="none" stroke="#b6fff3" stroke-width="12" stroke-linecap="round"/>
</svg>
