
<svg xmlns="http://www.w3.org/2000/svg" width="1280" height="720" viewBox="0 0 1280 720">
<defs>
  <linearGradient id="sky" x1="0" y1="0" x2="1" y2="1">
    <stop offset="0%" stop-color="#9a8b78"/>
    <stop offset="55%" stop-color="#43506f"/>
    <stop offset="100%" stop-color="#181b27"/>
  </linearGradient>
  <radialGradient id="glow" cx="35%" cy="18%" r="55%">
    <stop offset="0%" stop-color="rgba(255,255,255,.42)"/>
    <stop offset="100%" stop-color="rgba(255,255,255,0)"/>
  </radialGradient>
  <filter id="blur8"><feGaussianBlur stdDeviation="8"/></filter>
  <filter id="blur16"><feGaussianBlur stdDeviation="16"/></filter>
</defs>
<rect width="1280" height="720" fill="url(#sky)"/>
<rect width="1280" height="720" fill="url(#glow)"/>
<circle cx="1060" cy="120" r="110" fill="rgba(255,255,255,.12)" filter="url(#blur16)"/>
<circle cx="220" cy="600" r="180" fill="rgba(0,0,0,.14)" filter="url(#blur16)"/>

<path d="M0 0 L0 720 L90 610 L175 650 L245 520 L345 680 L470 470 L620 690 L760 470 L905 650 L1015 540 L1165 675 L1280 580 L1280 0 Z" fill="rgba(18,19,25,.38)"/>
<g opacity=".65"><polygon points="245,185 270,245 230,310 265,375 215,448 170,350 192,270" fill="#d7eeff"/><polygon points="945,140 985,235 930,315 970,430 896,492 850,365 882,255" fill="#dce8ff"/><polygon points="585,115 620,185 570,255 605,320 540,375 500,280 528,195" fill="#d7eeff"/></g>
<path d="M0 510 C140 490 255 550 390 520 C560 480 690 560 820 520 C960 478 1105 545 1280 500 L1280 720 L0 720 Z" fill="rgba(8,13,25,.78)"/>
<ellipse cx="640" cy="602" rx="270" ry="42" fill="rgba(129,176,255,.16)"/>

<g opacity=".16" fill="#fff"><circle cx="180" cy="130" r="4"/><circle cx="240" cy="90" r="3"/><circle cx="1060" cy="170" r="4"/><circle cx="1130" cy="120" r="2"/></g>
<text x="1120" y="615" font-size="140" text-anchor="middle" opacity=".14">🪨</text>
</svg>