<svg xmlns="http://www.w3.org/2000/svg" width="1600" height="900" viewBox="0 0 1600 900">
<defs>
<linearGradient id="bg" x1="0" y1="0" x2="1" y2="1"><stop offset="0%" stop-color="#8b7a63"/><stop offset="58%" stop-color="#171a24"/><stop offset="100%" stop-color="#060914"/></linearGradient>
<radialGradient id="light" cx="38%" cy="22%" r="60%"><stop offset="0%" stop-color="rgba(255,255,255,.34)"/><stop offset="100%" stop-color="rgba(255,255,255,0)"/></radialGradient>
<filter id="soft"><feGaussianBlur stdDeviation="10"/></filter>
</defs>
<rect width="1600" height="900" fill="url(#bg)"/><rect width="1600" height="900" fill="url(#light)"/>
<circle cx="1280" cy="140" r="150" fill="rgba(255,255,255,.10)" filter="url(#soft)"/>
<circle cx="220" cy="720" r="210" fill="rgba(0,0,0,.16)" filter="url(#soft)"/>
<path d="M0 430 L120 260 L240 430 L360 210 L520 430 L700 240 L960 430 L960 540 L0 540 Z" fill="rgba(0,0,0,.34)"/><g opacity=".5" stroke="rgba(255,255,255,.45)" stroke-width="6"><path d="M160 300 L220 420"/><path d="M530 250 L465 415"/><path d="M760 290 L840 425"/></g>
<g opacity=".18" fill="#fff"><circle cx="180" cy="160" r="9"/><circle cx="270" cy="230" r="5"/><circle cx="1340" cy="260" r="8"/><circle cx="1190" cy="105" r="4"/></g>
<text x="1320" y="760" font-size="170" text-anchor="middle" opacity=".18">🪨</text>
</svg>