
<svg xmlns="http://www.w3.org/2000/svg" width="1280" height="720" viewBox="0 0 1280 720">
<defs>
  <linearGradient id="sky" x1="0" y1="0" x2="1" y2="1">
    <stop offset="0%" stop-color="#75ecff"/>
    <stop offset="55%" stop-color="#1f6cbc"/>
    <stop offset="100%" stop-color="#06142b"/>
  </linearGradient>
  <radialGradient id="glow" cx="35%" cy="18%" r="55%">
    <stop offset="0%" stop-color="rgba(255,255,255,.42)"/>
    <stop offset="100%" stop-color="rgba(255,255,255,0)"/>
  </radialGradient>
  <filter id="blur8"><feGaussianBlur stdDeviation="8"/></filter>
  <filter id="blur16"><feGaussianBlur stdDeviation="16"/></filter>
</defs>
<rect width="1280" height="720" fill="url(#sky)"/>
<rect width="1280" height="720" fill="url(#glow)"/>
<circle cx="1060" cy="120" r="110" fill="rgba(255,255,255,.12)" filter="url(#blur16)"/>
<circle cx="220" cy="600" r="180" fill="rgba(0,0,0,.14)" filter="url(#blur16)"/>

<rect width="1280" height="720" fill="rgba(0,34,75,.18)"/>
<path d="M0 515 C190 468 340 540 560 495 C780 448 980 540 1280 458 L1280 720 L0 720 Z" fill="rgba(8,40,74,.64)"/>
<path d="M0 590 C196 560 345 610 560 565 C782 520 990 602 1280 534 L1280 720 L0 720 Z" fill="rgba(6,21,46,.90)"/>
<g fill="rgba(154,222,255,.42)"><rect x="266" y="280" width="100" height="210"/><rect x="426" y="232" width="88" height="258"/><rect x="758" y="248" width="92" height="242"/><rect x="906" y="198" width="110" height="292"/></g>
<g fill="rgba(255,255,255,.34)"><circle cx="210" cy="180" r="7"/><circle cx="242" cy="212" r="5"/><circle cx="888" cy="172" r="8"/><circle cx="928" cy="202" r="6"/><circle cx="968" cy="145" r="4"/></g>
<path d="M0 145 C195 174 348 112 540 145 C756 182 972 104 1280 142" fill="none" stroke="rgba(255,255,255,.18)" stroke-width="9"/>

<g opacity=".16" fill="#fff"><circle cx="180" cy="130" r="4"/><circle cx="240" cy="90" r="3"/><circle cx="1060" cy="170" r="4"/><circle cx="1130" cy="120" r="2"/></g>
<text x="1120" y="615" font-size="140" text-anchor="middle" opacity=".14">🌊</text>
</svg>