<svg xmlns="http://www.w3.org/2000/svg" width="960" height="540" viewBox="0 0 960 540">
<defs><radialGradient id="g" cx="50%" cy="42%" r="70%"><stop offset="0%" stop-color="#7b1e45"/><stop offset="55%" stop-color="#2b1029"/><stop offset="100%" stop-color="#09050d"/></radialGradient><filter id="glow"><feGaussianBlur stdDeviation="7" result="b"/><feMerge><feMergeNode in="b"/><feMergeNode in="SourceGraphic"/></feMerge></filter></defs>
<rect width="960" height="540" fill="url(#g)"/>
<circle cx="480" cy="250" r="150" fill="none" stroke="#ff4d6d" stroke-width="20" filter="url(#glow)" opacity=".75"/>
<circle cx="480" cy="250" r="82" fill="#0d0611"/>
<path d="M0 430 C140 380 250 440 390 400 C520 360 720 410 960 360 L960 540 L0 540 Z" fill="#120812"/>
<g fill="#2b0d18"><path d="M180 410 L230 210 L285 410 Z"/><path d="M670 410 L730 185 L790 410 Z"/></g>
<g stroke="#ff8a4d" stroke-width="8" opacity=".65"><path d="M420 178 L480 94 L540 178"/><path d="M376 250 H584"/><path d="M430 336 L480 396 L530 336"/></g>
<text x="480" y="500" text-anchor="middle" fill="#ffe4ea" font-family="system-ui,sans-serif" font-size="38" font-weight="900">魔界門</text>
</svg>