
<svg xmlns="http://www.w3.org/2000/svg" width="1280" height="720" viewBox="0 0 1280 720">
<defs>
  <linearGradient id="sky" x1="0" y1="0" x2="1" y2="1">
    <stop offset="0%" stop-color="#9ff1ff"/>
    <stop offset="55%" stop-color="#6282cc"/>
    <stop offset="100%" stop-color="#121829"/>
  </linearGradient>
  <radialGradient id="glow" cx="35%" cy="18%" r="55%">
    <stop offset="0%" stop-color="rgba(255,255,255,.42)"/>
    <stop offset="100%" stop-color="rgba(255,255,255,0)"/>
  </radialGradient>
  <filter id="blur8"><feGaussianBlur stdDeviation="8"/></filter>
  <filter id="blur16"><feGaussianBlur stdDeviation="16"/></filter>
</defs>
<rect width="1280" height="720" fill="url(#sky)"/>
<rect width="1280" height="720" fill="url(#glow)"/>
<circle cx="1060" cy="120" r="110" fill="rgba(255,255,255,.12)" filter="url(#blur16)"/>
<circle cx="220" cy="600" r="180" fill="rgba(0,0,0,.14)" filter="url(#blur16)"/>

<path d="M0 485 C170 445 340 510 522 478 C718 444 950 525 1280 430 L1280 720 L0 720 Z" fill="rgba(49,66,112,.56)"/>
<path d="M0 565 C185 538 360 602 562 560 C774 516 988 600 1280 528 L1280 720 L0 720 Z" fill="rgba(20,26,45,.88)"/>
<g fill="rgba(156,193,255,.42)"><rect x="230" y="220" width="130" height="260"/><rect x="398" y="178" width="92" height="302"/><rect x="527" y="242" width="120" height="238"/><rect x="702" y="140" width="105" height="340"/><rect x="842" y="205" width="154" height="275"/></g>
<g stroke="rgba(111,234,255,.70)" stroke-width="5"><path d="M230 325 H360"/><path d="M398 285 H490"/><path d="M702 240 H807"/><path d="M842 320 H996"/></g>
<circle cx="1080" cy="170" r="76" fill="rgba(115,255,246,.12)"/>
<g fill="none" stroke="rgba(255,255,255,.35)" stroke-width="8"><circle cx="1010" cy="528" r="56"/><circle cx="1010" cy="528" r="18"/><path d="M1010 456 V474"/><path d="M1010 582 V600"/><path d="M936 528 H954"/><path d="M1066 528 H1084"/></g>

<g opacity=".16" fill="#fff"><circle cx="180" cy="130" r="4"/><circle cx="240" cy="90" r="3"/><circle cx="1060" cy="170" r="4"/><circle cx="1130" cy="120" r="2"/></g>
<text x="1120" y="615" font-size="140" text-anchor="middle" opacity=".14">⚙️</text>
</svg>