
<svg xmlns="http://www.w3.org/2000/svg" width="1280" height="720" viewBox="0 0 1280 720">
<defs>
  <linearGradient id="sky" x1="0" y1="0" x2="1" y2="1">
    <stop offset="0%" stop-color="#82e37d"/>
    <stop offset="55%" stop-color="#2f936f"/>
    <stop offset="100%" stop-color="#16302a"/>
  </linearGradient>
  <radialGradient id="glow" cx="35%" cy="18%" r="55%">
    <stop offset="0%" stop-color="rgba(255,255,255,.42)"/>
    <stop offset="100%" stop-color="rgba(255,255,255,0)"/>
  </radialGradient>
  <filter id="blur8"><feGaussianBlur stdDeviation="8"/></filter>
  <filter id="blur16"><feGaussianBlur stdDeviation="16"/></filter>
</defs>
<rect width="1280" height="720" fill="url(#sky)"/>
<rect width="1280" height="720" fill="url(#glow)"/>
<circle cx="1060" cy="120" r="110" fill="rgba(255,255,255,.12)" filter="url(#blur16)"/>
<circle cx="220" cy="600" r="180" fill="rgba(0,0,0,.14)" filter="url(#blur16)"/>

<path d="M0 430 C180 350 340 430 520 370 C700 310 930 420 1280 340 L1280 720 L0 720 Z" fill="rgba(21,91,53,.66)"/>
<path d="M0 510 C230 450 380 520 560 465 C740 410 965 525 1280 430 L1280 720 L0 720 Z" fill="rgba(12,55,34,.86)"/>
<circle cx="980" cy="210" r="46" fill="rgba(255,243,173,.35)"/>
<g fill="rgba(255,255,255,.55)"><circle cx="180" cy="440" r="10"/><circle cx="203" cy="427" r="7"/><circle cx="232" cy="448" r="8"/><circle cx="910" cy="470" r="10"/><circle cx="936" cy="455" r="7"/></g>
<g fill="rgba(42,123,71,.95)"><rect x="770" y="315" width="18" height="120" rx="8"/><circle cx="779" cy="298" r="36"/><circle cx="753" cy="323" r="28"/><circle cx="807" cy="327" r="30"/></g>

<g opacity=".16" fill="#fff"><circle cx="180" cy="130" r="4"/><circle cx="240" cy="90" r="3"/><circle cx="1060" cy="170" r="4"/><circle cx="1130" cy="120" r="2"/></g>
<text x="1120" y="615" font-size="140" text-anchor="middle" opacity=".14">🌿</text>
</svg>