<svg xmlns="http://www.w3.org/2000/svg" width="1600" height="900" viewBox="0 0 1600 900">
<defs>
<linearGradient id="bg" x1="0" y1="0" x2="1" y2="1"><stop offset="0%" stop-color="#b7eeff"/><stop offset="58%" stop-color="#132a4d"/><stop offset="100%" stop-color="#060914"/></linearGradient>
<radialGradient id="light" cx="38%" cy="22%" r="60%"><stop offset="0%" stop-color="rgba(255,255,255,.34)"/><stop offset="100%" stop-color="rgba(255,255,255,0)"/></radialGradient>
<filter id="soft"><feGaussianBlur stdDeviation="10"/></filter>
</defs>
<rect width="1600" height="900" fill="url(#bg)"/><rect width="1600" height="900" fill="url(#light)"/>
<circle cx="1280" cy="140" r="150" fill="rgba(255,255,255,.10)" filter="url(#soft)"/>
<circle cx="220" cy="720" r="210" fill="rgba(0,0,0,.16)" filter="url(#soft)"/>
<path d="M0 430 C160 390 300 455 460 405 C620 360 760 425 960 365 L960 540 L0 540 Z" fill="rgba(255,255,255,.12)"/><g opacity=".5" fill="rgba(255,255,255,.34)"><circle cx="170" cy="120" r="5"/><circle cx="260" cy="75" r="4"/><circle cx="720" cy="140" r="6"/><circle cx="820" cy="95" r="3"/></g>
<g opacity=".18" fill="#fff"><circle cx="180" cy="160" r="9"/><circle cx="270" cy="230" r="5"/><circle cx="1340" cy="260" r="8"/><circle cx="1190" cy="105" r="4"/></g>
<text x="1320" y="760" font-size="170" text-anchor="middle" opacity=".18">❄️</text>
</svg>