
<svg xmlns="http://www.w3.org/2000/svg" width="1280" height="720" viewBox="0 0 1280 720">
<defs>
  <linearGradient id="sky" x1="0" y1="0" x2="1" y2="1">
    <stop offset="0%" stop-color="#ffaf57"/>
    <stop offset="55%" stop-color="#d6412c"/>
    <stop offset="100%" stop-color="#230d14"/>
  </linearGradient>
  <radialGradient id="glow" cx="35%" cy="18%" r="55%">
    <stop offset="0%" stop-color="rgba(255,255,255,.42)"/>
    <stop offset="100%" stop-color="rgba(255,255,255,0)"/>
  </radialGradient>
  <filter id="blur8"><feGaussianBlur stdDeviation="8"/></filter>
  <filter id="blur16"><feGaussianBlur stdDeviation="16"/></filter>
</defs>
<rect width="1280" height="720" fill="url(#sky)"/>
<rect width="1280" height="720" fill="url(#glow)"/>
<circle cx="1060" cy="120" r="110" fill="rgba(255,255,255,.12)" filter="url(#blur16)"/>
<circle cx="220" cy="600" r="180" fill="rgba(0,0,0,.14)" filter="url(#blur16)"/>

<path d="M0 480 C160 448 240 520 380 470 C490 430 605 338 680 292 C725 266 770 260 818 285 C890 322 950 442 1060 462 C1135 476 1205 468 1280 450 L1280 720 L0 720 Z" fill="rgba(23,10,12,.82)"/>
<path d="M370 472 C455 360 520 322 596 208 C635 150 680 144 720 210 C790 325 815 372 902 470 Z" fill="rgba(67,24,25,.84)"/>
<path d="M610 205 C624 158 684 158 698 205 L727 308 C687 278 638 278 582 308 Z" fill="rgba(255,154,76,.66)"/>
<g stroke="rgba(255,183,77,.55)" stroke-width="5"><path d="M645 226 L626 130"/><path d="M668 220 L705 120"/><path d="M683 234 L755 152"/></g>
<path d="M0 560 C190 530 335 598 535 552 C725 510 945 600 1280 520 L1280 720 L0 720 Z" fill="rgba(0,0,0,.24)"/>
<path d="M150 575 C210 560 258 590 318 578 C392 564 452 598 540 570" fill="none" stroke="rgba(255,110,40,.55)" stroke-width="8"/>

<g opacity=".16" fill="#fff"><circle cx="180" cy="130" r="4"/><circle cx="240" cy="90" r="3"/><circle cx="1060" cy="170" r="4"/><circle cx="1130" cy="120" r="2"/></g>
<text x="1120" y="615" font-size="140" text-anchor="middle" opacity=".14">🔥</text>
</svg>