<svg xmlns="http://www.w3.org/2000/svg" width="1600" height="900" viewBox="0 0 1600 900">
<defs>
<linearGradient id="bg" x1="0" y1="0" x2="1" y2="1"><stop offset="0%" stop-color="#ff7b2e"/><stop offset="58%" stop-color="#271014"/><stop offset="100%" stop-color="#060914"/></linearGradient>
<radialGradient id="light" cx="38%" cy="22%" r="60%"><stop offset="0%" stop-color="rgba(255,255,255,.34)"/><stop offset="100%" stop-color="rgba(255,255,255,0)"/></radialGradient>
<filter id="soft"><feGaussianBlur stdDeviation="10"/></filter>
</defs>
<rect width="1600" height="900" fill="url(#bg)"/><rect width="1600" height="900" fill="url(#light)"/>
<circle cx="1280" cy="140" r="150" fill="rgba(255,255,255,.10)" filter="url(#soft)"/>
<circle cx="220" cy="720" r="210" fill="rgba(0,0,0,.16)" filter="url(#soft)"/>
<path d="M0 410 C170 350 290 440 430 380 C590 315 760 435 960 360 L960 540 L0 540 Z" fill="rgba(0,0,0,.43)"/><circle cx="700" cy="215" r="120" fill="rgba(255,92,92,.16)"/><path d="M420 430 C460 350 500 350 540 430 Z" fill="rgba(255,180,70,.45)"/>
<g opacity=".18" fill="#fff"><circle cx="180" cy="160" r="9"/><circle cx="270" cy="230" r="5"/><circle cx="1340" cy="260" r="8"/><circle cx="1190" cy="105" r="4"/></g>
<text x="1320" y="760" font-size="170" text-anchor="middle" opacity=".18">🔥</text>
</svg>