<svg xmlns="http://www.w3.org/2000/svg" width="512" height="512" viewBox="0 0 512 512">
<defs>
<radialGradient id="bg" cx="35%" cy="18%" r="78%">
  <stop offset="0%" stop-color="#a9f4ff"/>
  <stop offset="60%" stop-color="#23556f"/>
  <stop offset="100%" stop-color="#070914"/>
</radialGradient>
<filter id="shadow" x="-35%" y="-35%" width="170%" height="170%">
  <feDropShadow dx="0" dy="18" stdDeviation="14" flood-color="#000" flood-opacity=".35"/>
</filter>
<filter id="glow" x="-45%" y="-45%" width="190%" height="190%">
  <feGaussianBlur stdDeviation="6" result="b"/>
  <feMerge><feMergeNode in="b"/><feMergeNode in="SourceGraphic"/></feMerge>
</filter>
</defs>
<rect x="20" y="20" width="472" height="472" rx="96" fill="url(#bg)" opacity=".96"/>
<circle cx="412" cy="94" r="62" fill="rgba(255,255,255,.13)"/>
<circle cx="90" cy="418" r="76" fill="rgba(0,0,0,.15)"/>
<circle cx="80" cy="70" r="3" fill="rgba(255,255,255,.55)"/><circle cx="158" cy="88" r="4" fill="rgba(255,255,255,.55)"/><circle cx="236" cy="70" r="5" fill="rgba(255,255,255,.55)"/><circle cx="314" cy="88" r="3" fill="rgba(255,255,255,.55)"/><circle cx="392" cy="70" r="4" fill="rgba(255,255,255,.55)"/>
<g filter="url(#shadow)">

<path d="M256 74 C352 142 392 244 350 360 C326 426 286 456 256 466 C226 456 186 426 162 360 C120 244 160 142 256 74Z" fill="#a9f4ff" stroke="#ffffff" stroke-width="13"/>
<path d="M256 96 V438" stroke="rgba(255,255,255,.42)" stroke-width="12" stroke-linecap="round"/>
<path d="M170 258 C220 236 292 236 342 258 M180 326 C225 306 287 306 332 326" stroke="rgba(255,255,255,.42)" stroke-width="10" fill="none" stroke-linecap="round"/>

</g>
</svg>