<svg xmlns="http://www.w3.org/2000/svg" width="512" height="512" viewBox="0 0 512 512">
<defs>
<radialGradient id="bg" cx="35%" cy="18%" r="78%">
  <stop offset="0%" stop-color="#a8b5c7"/>
  <stop offset="60%" stop-color="#263040"/>
  <stop offset="100%" stop-color="#070914"/>
</radialGradient>
<filter id="shadow" x="-35%" y="-35%" width="170%" height="170%">
  <feDropShadow dx="0" dy="18" stdDeviation="14" flood-color="#000" flood-opacity=".35"/>
</filter>
<filter id="glow" x="-45%" y="-45%" width="190%" height="190%">
  <feGaussianBlur stdDeviation="6" result="b"/>
  <feMerge><feMergeNode in="b"/><feMergeNode in="SourceGraphic"/></feMerge>
</filter>
</defs>
<rect x="20" y="20" width="472" height="472" rx="96" fill="url(#bg)" opacity=".96"/>
<circle cx="412" cy="94" r="62" fill="rgba(255,255,255,.13)"/>
<circle cx="90" cy="418" r="76" fill="rgba(0,0,0,.15)"/>
<circle cx="80" cy="70" r="3" fill="rgba(255,255,255,.55)"/><circle cx="158" cy="88" r="4" fill="rgba(255,255,255,.55)"/><circle cx="236" cy="70" r="5" fill="rgba(255,255,255,.55)"/><circle cx="314" cy="88" r="3" fill="rgba(255,255,255,.55)"/><circle cx="392" cy="70" r="4" fill="rgba(255,255,255,.55)"/>
<g filter="url(#shadow)">

<polygon points="256,82 356,172 326,390 256,440 186,390 156,172" fill="#a8b5c7" stroke="#e7efff" stroke-width="12"/>
<polygon points="256,82 326,390 256,440 226,210" fill="rgba(255,255,255,.24)"/>
<path d="M190 174 L256 110 L322 174" fill="none" stroke="rgba(255,255,255,.55)" stroke-width="10" stroke-linecap="round"/>

</g>
</svg>