<svg xmlns="http://www.w3.org/2000/svg" width="512" height="512" viewBox="0 0 512 512">
<defs>
  <radialGradient id="bg" cx="38%" cy="24%" r="78%">
    <stop offset="0%" stop-color="#2c7ba7"/>
    <stop offset="100%" stop-color="#17213f"/>
  </radialGradient>
  <filter id="shadow" x="-30%" y="-30%" width="160%" height="160%">
    <feDropShadow dx="0" dy="16" stdDeviation="16" flood-color="#000" flood-opacity=".35"/>
  </filter>
  <filter id="glow" x="-40%" y="-40%" width="180%" height="180%">
    <feGaussianBlur stdDeviation="5" result="blur"/>
    <feMerge><feMergeNode in="blur"/><feMergeNode in="SourceGraphic"/></feMerge>
  </filter>
</defs>
<rect width="512" height="512" rx="52" fill="url(#bg)"/>
<circle cx="418" cy="88" r="64" fill="rgba(255,255,255,.12)"/>
<circle cx="92" cy="420" r="72" fill="rgba(0,0,0,.12)"/>

<g filter="url(#shadow)">
 <ellipse cx="256" cy="350" rx="128" ry="42" fill="rgba(0,0,0,.22)"/>
 <path d="M256 92 C342 198 378 257 356 328 C340 382 298 414 256 414 C214 414 172 382 156 328 C134 257 170 198 256 92Z" fill="#5cd4ff"/>
 <path d="M204 156 C248 116 308 156 333 219 C291 185 235 171 204 156Z" fill="rgba(255,255,255,.34)"/>
 
<circle cx="222" cy="260" r="13" fill="#101827"/>
<circle cx="290" cy="260" r="13" fill="#101827"/>
<circle cx="218" cy="255" r="4" fill="#fff"/>
<circle cx="286" cy="255" r="4" fill="#fff"/>

 <path d="M229 322 Q256 342 283 322" fill="none" stroke="#10415d" stroke-width="10" stroke-linecap="round"/>
 <circle cx="178" cy="318" r="15" fill="#dff9ff" opacity=".78"/>
 <circle cx="334" cy="318" r="15" fill="#dff9ff" opacity=".78"/>
</g>
<rect x="48" y="412" width="416" height="62" rx="22" fill="rgba(0,0,0,.32)"/>
<text x="256" y="451" text-anchor="middle" font-size="30" fill="#fff" font-family="system-ui, sans-serif" font-weight="800">アクアン</text>
</svg>