<svg xmlns="http://www.w3.org/2000/svg" width="512" height="512" viewBox="0 0 512 512">
<defs>
  <radialGradient id="bg" cx="38%" cy="24%" r="78%">
    <stop offset="0%" stop-color="#273b55"/>
    <stop offset="100%" stop-color="#17213f"/>
  </radialGradient>
  <filter id="shadow" x="-30%" y="-30%" width="160%" height="160%">
    <feDropShadow dx="0" dy="16" stdDeviation="16" flood-color="#000" flood-opacity=".35"/>
  </filter>
  <filter id="glow" x="-40%" y="-40%" width="180%" height="180%">
    <feGaussianBlur stdDeviation="5" result="blur"/>
    <feMerge><feMergeNode in="blur"/><feMergeNode in="SourceGraphic"/></feMerge>
  </filter>
</defs>
<rect width="512" height="512" rx="52" fill="url(#bg)"/>
<circle cx="418" cy="88" r="64" fill="rgba(255,255,255,.12)"/>
<circle cx="92" cy="420" r="72" fill="rgba(0,0,0,.12)"/>

<g filter="url(#shadow)">
 <ellipse cx="256" cy="374" rx="162" ry="45" fill="rgba(0,0,0,.30)"/>
 <rect x="132" y="164" width="248" height="210" rx="34" fill="#52677d"/>
 <rect x="166" y="198" width="180" height="82" rx="18" fill="#1b2a3c"/>
 <circle cx="256" cy="320" r="46" fill="#7df1ff" filter="url(#glow)"/>
 <circle cx="218" cy="240" r="14" fill="#bffbff"/>
 <circle cx="294" cy="240" r="14" fill="#bffbff"/>
 <path d="M132 238 L72 196 L82 292 L132 312 Z" fill="#405166"/>
 <path d="M380 238 L440 196 L430 292 L380 312 Z" fill="#405166"/>
 <path d="M194 156 L218 92 L256 142 L294 92 L318 156" fill="none" stroke="#7df1ff" stroke-width="12" stroke-linecap="round" filter="url(#glow)"/>
 <path d="M178 358 L158 414 M334 358 L354 414" stroke="#52677d" stroke-width="24" stroke-linecap="round"/>
</g>
<rect x="48" y="412" width="416" height="62" rx="22" fill="rgba(0,0,0,.32)"/>
<text x="256" y="451" text-anchor="middle" font-size="30" fill="#fff" font-family="system-ui, sans-serif" font-weight="800">アークマシン</text>
</svg>