<svg xmlns="http://www.w3.org/2000/svg" width="512" height="512" viewBox="0 0 512 512">
<defs>
<radialGradient id="bg" cx="36%" cy="20%" r="82%"><stop offset="0%" stop-color="#512466"/><stop offset="100%" stop-color="#180d26"/></radialGradient>
<linearGradient id="shine" x1="0" y1="0" x2="1" y2="1"><stop offset="0%" stop-color="rgba(255,255,255,.38)"/><stop offset="100%" stop-color="rgba(255,255,255,0)"/></linearGradient>
<filter id="shadow" x="-30%" y="-30%" width="160%" height="160%"><feDropShadow dx="0" dy="18" stdDeviation="15" flood-color="#000" flood-opacity=".38"/></filter>
<filter id="glow" x="-40%" y="-40%" width="180%" height="180%"><feGaussianBlur stdDeviation="5" result="b"/><feMerge><feMergeNode in="b"/><feMergeNode in="SourceGraphic"/></feMerge></filter>
</defs>
<rect width="512" height="512" rx="58" fill="url(#bg)"/>
<circle cx="410" cy="88" r="68" fill="rgba(255,255,255,.10)"/>
<circle cx="96" cy="420" r="76" fill="rgba(0,0,0,.16)"/>

<g filter="url(#shadow)">
<ellipse cx="256" cy="360" rx="148" ry="42" fill="rgba(0,0,0,.32)"/>
<ellipse cx="256" cy="258" rx="118" ry="112" fill="#6f3280"/>
<circle cx="256" cy="258" r="68" fill="#f1e8ff"/>
<circle cx="256" cy="258" r="36" fill="#8134d6"/>
<circle cx="256" cy="258" r="15" fill="#05050c"/>
<circle cx="242" cy="242" r="8" fill="#fff"/>
<path d="M170 226 C122 190 124 146 162 122 C192 160 198 196 170 226Z" fill="#8b48a0"/>
<path d="M342 226 C390 190 388 146 350 122 C320 160 314 196 342 226Z" fill="#8b48a0"/>
<path d="M188 336 Q256 388 326 336" fill="none" stroke="#2e143a" stroke-width="14" stroke-linecap="round"/>
</g><rect x="46" y="410" width="420" height="66" rx="24" fill="rgba(0,0,0,.34)"/>
<text x="256" y="452" fill="#fff" font-size="30" font-family="system-ui,sans-serif" font-weight="900" text-anchor="middle">ドゥームゲイザー</text>
</svg>