<svg xmlns="http://www.w3.org/2000/svg" width="512" height="512" viewBox="0 0 512 512">
<defs>
  <radialGradient id="bg" cx="38%" cy="24%" r="78%">
    <stop offset="0%" stop-color="#a04534"/>
    <stop offset="100%" stop-color="#17213f"/>
  </radialGradient>
  <filter id="shadow" x="-30%" y="-30%" width="160%" height="160%">
    <feDropShadow dx="0" dy="16" stdDeviation="16" flood-color="#000" flood-opacity=".35"/>
  </filter>
  <filter id="glow" x="-40%" y="-40%" width="180%" height="180%">
    <feGaussianBlur stdDeviation="5" result="blur"/>
    <feMerge><feMergeNode in="blur"/><feMergeNode in="SourceGraphic"/></feMerge>
  </filter>
</defs>
<rect width="512" height="512" rx="52" fill="url(#bg)"/>
<circle cx="418" cy="88" r="64" fill="rgba(255,255,255,.12)"/>
<circle cx="92" cy="420" r="72" fill="rgba(0,0,0,.12)"/>

<g filter="url(#shadow)">
 <ellipse cx="256" cy="352" rx="135" ry="42" fill="rgba(0,0,0,.25)"/>
 <circle cx="178" cy="182" r="42" fill="#b7653d"/>
 <circle cx="334" cy="182" r="42" fill="#b7653d"/>
 <ellipse cx="256" cy="282" rx="112" ry="128" fill="#c5743f"/>
 <path d="M202 166 C230 110 282 106 314 166 C282 148 233 148 202 166Z" fill="#ffb94f"/>
 <path d="M230 116 L256 54 L282 116 Z" fill="#ff6d2d" filter="url(#glow)"/>
 
<circle cx="222" cy="258" r="14" fill="#101827"/>
<circle cx="290" cy="258" r="14" fill="#101827"/>
<circle cx="218" cy="253" r="4" fill="#fff"/>
<circle cx="286" cy="253" r="4" fill="#fff"/>

 <ellipse cx="256" cy="299" rx="30" ry="24" fill="#f0b077"/>
 <path d="M236 326 Q256 347 276 326" fill="none" stroke="#311a12" stroke-width="9" stroke-linecap="round"/>
</g>
<rect x="48" y="412" width="416" height="62" rx="22" fill="rgba(0,0,0,.32)"/>
<text x="256" y="451" text-anchor="middle" font-size="30" fill="#fff" font-family="system-ui, sans-serif" font-weight="800">ヒノコぐま</text>
</svg>