<svg xmlns="http://www.w3.org/2000/svg" width="512" height="512" viewBox="0 0 512 512">
<defs>
  <radialGradient id="bg" cx="38%" cy="24%" r="78%">
    <stop offset="0%" stop-color="#65c878"/>
    <stop offset="100%" stop-color="#17213f"/>
  </radialGradient>
  <filter id="shadow" x="-30%" y="-30%" width="160%" height="160%">
    <feDropShadow dx="0" dy="16" stdDeviation="16" flood-color="#000" flood-opacity=".35"/>
  </filter>
  <filter id="glow" x="-40%" y="-40%" width="180%" height="180%">
    <feGaussianBlur stdDeviation="5" result="blur"/>
    <feMerge><feMergeNode in="blur"/><feMergeNode in="SourceGraphic"/></feMerge>
  </filter>
</defs>
<rect width="512" height="512" rx="52" fill="url(#bg)"/>
<circle cx="418" cy="88" r="64" fill="rgba(255,255,255,.12)"/>
<circle cx="92" cy="420" r="72" fill="rgba(0,0,0,.12)"/>

<g filter="url(#shadow)">
 <ellipse cx="256" cy="328" rx="118" ry="42" fill="rgba(0,0,0,.24)"/>
 <path d="M157 308 C147 230 190 168 256 168 C322 168 365 230 355 308 C347 370 306 402 256 402 C206 402 165 370 157 308Z" fill="#77d66c"/>
 <path d="M256 166 C237 112 263 80 310 64 C315 115 295 150 256 166Z" fill="#4fb35e"/>
 <path d="M256 166 C225 122 188 116 152 132 C183 166 218 179 256 166Z" fill="#5fcf77"/>
 <path d="M254 174 C266 126 292 92 310 66" stroke="#e9ffe9" stroke-width="7" fill="none" opacity=".6"/>
 
<circle cx="220" cy="262" r="14" fill="#101827"/>
<circle cx="292" cy="262" r="14" fill="#101827"/>
<circle cx="216" cy="257" r="4" fill="#fff"/>
<circle cx="288" cy="257" r="4" fill="#fff"/>

 <path d="M226 320 Q256 338 286 320" fill="none" stroke="#16321b" stroke-width="10" stroke-linecap="round"/>
 <circle cx="176" cy="303" r="15" fill="#f6ff9d" opacity=".8"/>
 <circle cx="336" cy="303" r="15" fill="#f6ff9d" opacity=".8"/>
</g>
<rect x="48" y="412" width="416" height="62" rx="22" fill="rgba(0,0,0,.32)"/>
<text x="256" y="451" text-anchor="middle" font-size="30" fill="#fff" font-family="system-ui, sans-serif" font-weight="800">リーフリン</text>
</svg>