<svg xmlns="http://www.w3.org/2000/svg" width="512" height="512" viewBox="0 0 512 512">
<defs>
  <radialGradient id="bg" cx="38%" cy="24%" r="78%">
    <stop offset="0%" stop-color="#556072"/>
    <stop offset="100%" stop-color="#17213f"/>
  </radialGradient>
  <filter id="shadow" x="-30%" y="-30%" width="160%" height="160%">
    <feDropShadow dx="0" dy="16" stdDeviation="16" flood-color="#000" flood-opacity=".35"/>
  </filter>
  <filter id="glow" x="-40%" y="-40%" width="180%" height="180%">
    <feGaussianBlur stdDeviation="5" result="blur"/>
    <feMerge><feMergeNode in="blur"/><feMergeNode in="SourceGraphic"/></feMerge>
  </filter>
</defs>
<rect width="512" height="512" rx="52" fill="url(#bg)"/>
<circle cx="418" cy="88" r="64" fill="rgba(255,255,255,.12)"/>
<circle cx="92" cy="420" r="72" fill="rgba(0,0,0,.12)"/>

<g filter="url(#shadow)">
 <ellipse cx="256" cy="348" rx="135" ry="43" fill="rgba(0,0,0,.28)"/>
 <path d="M140 300 L166 190 L244 132 L334 158 L384 250 L350 364 L250 404 L166 368 Z" fill="#8f94a3"/>
 <path d="M166 190 L244 132 L232 236 L140 300 Z" fill="rgba(255,255,255,.12)"/>
 <path d="M334 158 L384 250 L300 244 L244 132 Z" fill="rgba(0,0,0,.15)"/>
 <path d="M232 236 L300 244 L350 364 L250 404 L166 368 L140 300 Z" fill="rgba(0,0,0,.08)"/>
 
<circle cx="220" cy="268" r="13" fill="#101827"/>
<circle cx="292" cy="268" r="13" fill="#101827"/>
<circle cx="216" cy="263" r="4" fill="#fff"/>
<circle cx="288" cy="263" r="4" fill="#fff"/>

 <path d="M224 328 Q256 344 288 328" fill="none" stroke="#20283a" stroke-width="10" stroke-linecap="round"/>
</g>
<rect x="48" y="412" width="416" height="62" rx="22" fill="rgba(0,0,0,.32)"/>
<text x="256" y="451" text-anchor="middle" font-size="30" fill="#fff" font-family="system-ui, sans-serif" font-weight="800">ペブロン</text>
</svg>