<svg xmlns="http://www.w3.org/2000/svg" width="512" height="512" viewBox="0 0 512 512">
<defs>
  <radialGradient id="bg" cx="38%" cy="24%" r="78%">
    <stop offset="0%" stop-color="#4b315d"/>
    <stop offset="100%" stop-color="#17213f"/>
  </radialGradient>
  <filter id="shadow" x="-30%" y="-30%" width="160%" height="160%">
    <feDropShadow dx="0" dy="16" stdDeviation="16" flood-color="#000" flood-opacity=".35"/>
  </filter>
  <filter id="glow" x="-40%" y="-40%" width="180%" height="180%">
    <feGaussianBlur stdDeviation="5" result="blur"/>
    <feMerge><feMergeNode in="blur"/><feMergeNode in="SourceGraphic"/></feMerge>
  </filter>
</defs>
<rect width="512" height="512" rx="52" fill="url(#bg)"/>
<circle cx="418" cy="88" r="64" fill="rgba(255,255,255,.12)"/>
<circle cx="92" cy="420" r="72" fill="rgba(0,0,0,.12)"/>

<g filter="url(#shadow)">
  <ellipse cx="256" cy="300" rx="130" ry="48" fill="rgba(0,0,0,.25)"/>
  <path d="M134 302 C122 212 176 120 256 118 C336 120 392 212 378 302 C366 374 318 408 256 408 C194 408 146 374 134 302Z" fill="#8b52a1"/>
  <path d="M184 162 C222 124 297 126 336 170 C305 151 220 148 184 162Z" fill="rgba(255,255,255,.26)"/>
  <circle cx="198" cy="246" r="28" fill="rgba(255,255,255,.18)"/>
  
<circle cx="220" cy="254" r="15" fill="#101827"/>
<circle cx="292" cy="254" r="15" fill="#101827"/>
<circle cx="216" cy="249" r="5" fill="#fff"/>
<circle cx="288" cy="249" r="5" fill="#fff"/>

  <path d="M225 315 Q256 342 287 315" fill="none" stroke="#17213f" stroke-width="12" stroke-linecap="round"/>
  <circle cx="170" cy="304" r="16" fill="#caff68" opacity=".72"/>
  <circle cx="342" cy="304" r="16" fill="#caff68" opacity=".72"/>
</g>
<rect x="48" y="412" width="416" height="62" rx="22" fill="rgba(0,0,0,.32)"/>
<text x="256" y="451" text-anchor="middle" font-size="30" fill="#fff" font-family="system-ui, sans-serif" font-weight="800">ポイズンぷる</text>
</svg>