<svg xmlns="http://www.w3.org/2000/svg" width="512" height="512" viewBox="0 0 512 512">
<defs>
  <radialGradient id="bg" cx="38%" cy="24%" r="78%">
    <stop offset="0%" stop-color="#44346e"/>
    <stop offset="100%" stop-color="#17213f"/>
  </radialGradient>
  <filter id="shadow" x="-30%" y="-30%" width="160%" height="160%">
    <feDropShadow dx="0" dy="16" stdDeviation="16" flood-color="#000" flood-opacity=".35"/>
  </filter>
  <filter id="glow" x="-40%" y="-40%" width="180%" height="180%">
    <feGaussianBlur stdDeviation="5" result="blur"/>
    <feMerge><feMergeNode in="blur"/><feMergeNode in="SourceGraphic"/></feMerge>
  </filter>
</defs>
<rect width="512" height="512" rx="52" fill="url(#bg)"/>
<circle cx="418" cy="88" r="64" fill="rgba(255,255,255,.12)"/>
<circle cx="92" cy="420" r="72" fill="rgba(0,0,0,.12)"/>

<g filter="url(#shadow)">
 <ellipse cx="256" cy="342" rx="140" ry="42" fill="rgba(0,0,0,.25)"/>
 <path d="M102 238 C154 175 198 222 225 264 C177 260 148 290 102 238Z" fill="#423266"/>
 <path d="M410 238 C358 175 314 222 287 264 C335 260 364 290 410 238Z" fill="#423266"/>
 <ellipse cx="256" cy="274" rx="88" ry="112" fill="#5e4a8c"/>
 <path d="M204 170 L226 226 L176 214 Z" fill="#5e4a8c"/>
 <path d="M308 170 L286 226 L336 214 Z" fill="#5e4a8c"/>
 
<circle cx="224" cy="260" r="13" fill="#07111f"/>
<circle cx="288" cy="260" r="13" fill="#07111f"/>
<circle cx="220" cy="255" r="4" fill="#fff"/>
<circle cx="284" cy="255" r="4" fill="#fff"/>

 <path d="M230 317 Q256 334 282 317" fill="none" stroke="#101827" stroke-width="9" stroke-linecap="round"/>
 <path d="M220 334 L232 358 L242 334" fill="#fff"/>
 <path d="M270 334 L280 358 L292 334" fill="#fff"/>
</g>
<rect x="48" y="412" width="416" height="62" rx="22" fill="rgba(0,0,0,.32)"/>
<text x="256" y="451" text-anchor="middle" font-size="30" fill="#fff" font-family="system-ui, sans-serif" font-weight="800">プフバット</text>
</svg>