<svg xmlns="http://www.w3.org/2000/svg" width="512" height="512" viewBox="0 0 512 512">
<defs>
<radialGradient id="bg" cx="36%" cy="20%" r="82%"><stop offset="0%" stop-color="#6b8293"/><stop offset="100%" stop-color="#152234"/></radialGradient>
<linearGradient id="shine" x1="0" y1="0" x2="1" y2="1"><stop offset="0%" stop-color="rgba(255,255,255,.38)"/><stop offset="100%" stop-color="rgba(255,255,255,0)"/></linearGradient>
<filter id="shadow" x="-30%" y="-30%" width="160%" height="160%"><feDropShadow dx="0" dy="18" stdDeviation="15" flood-color="#000" flood-opacity=".38"/></filter>
<filter id="glow" x="-40%" y="-40%" width="180%" height="180%"><feGaussianBlur stdDeviation="5" result="b"/><feMerge><feMergeNode in="b"/><feMergeNode in="SourceGraphic"/></feMerge></filter>
</defs>
<rect width="512" height="512" rx="58" fill="url(#bg)"/>
<circle cx="410" cy="88" r="68" fill="rgba(255,255,255,.10)"/>
<circle cx="96" cy="420" r="76" fill="rgba(0,0,0,.16)"/>

<g filter="url(#shadow)">
<ellipse cx="256" cy="360" rx="150" ry="42" fill="rgba(0,0,0,.30)"/>
<path d="M148 328 C132 230 190 156 270 146 C346 156 390 228 370 320 C340 394 206 402 148 328Z" fill="#8ea4ad"/>
<path d="M170 300 C200 230 244 188 318 170 C300 236 248 280 170 300Z" fill="rgba(255,255,255,.18)"/>
<path d="M212 172 L236 106 L276 158 L322 96 L326 174" fill="none" stroke="#dcebf0" stroke-width="18" stroke-linecap="round"/>
<circle cx="220" cy="270" r="12" fill="#07111f"/><circle cx="292" cy="270" r="12" fill="#07111f"/>
<circle cx="216" cy="265" r="4" fill="#fff"/><circle cx="288" cy="265" r="4" fill="#fff"/>
<path d="M220 326 Q256 346 294 326" fill="none" stroke="#263641" stroke-width="10" stroke-linecap="round"/>
<circle cx="256" cy="248" r="34" fill="#84f0ff" opacity=".45" filter="url(#glow)"/>
</g><rect x="46" y="410" width="420" height="66" rx="24" fill="rgba(0,0,0,.34)"/>
<text x="256" y="452" fill="#fff" font-size="30" font-family="system-ui,sans-serif" font-weight="900" text-anchor="middle">シェルゴーレム</text>
</svg>